<?xml version="1.0" encoding="UTF-8"?>
<svg version="1.1" xmlns="http://www.w3.org/2000/svg" width="442" height="422">
<path d="M0 0 C0.95506439 0.00304138 1.91012878 0.00608276 2.89413452 0.00921631 C18.35378412 0.0817038 33.18437957 1.01962685 48.3125 4.4375 C49.77623047 4.75895996 49.77623047 4.75895996 51.26953125 5.08691406 C71.30709363 9.59733521 90.24179065 16.70430203 108.3125 26.4375 C109.30757568 26.96512939 109.30757568 26.96512939 110.32275391 27.50341797 C137.68029955 42.06923253 161.72475212 62.66281249 180.3125 87.4375 C180.74062988 87.99953125 181.16875977 88.5615625 181.60986328 89.140625 C205.17109756 120.18089671 221.15679184 160.89993177 221.55078125 200.08984375 C221.56062042 200.8987355 221.57045959 201.70762726 221.58059692 202.54103088 C222.15665636 262.25098363 202.55486832 314.15465469 161.3125 357.4375 C160.58675781 358.21609375 159.86101562 358.9946875 159.11328125 359.796875 C152.75817597 366.42216036 145.62706682 371.92875407 138.3125 377.4375 C137.7649707 377.85644531 137.21744141 378.27539062 136.65332031 378.70703125 C112.17918624 397.36245105 83.77436484 409.77619609 54 417.125 C53.24396484 417.31545898 52.48792969 417.50591797 51.70898438 417.70214844 C34.83171197 421.66229466 17.91436574 422.99288161 0.625 422.875 C-0.33006439 422.87195862 -1.28512878 422.86891724 -2.26913452 422.86578369 C-17.72878412 422.7932962 -32.55937957 421.85537315 -47.6875 418.4375 C-48.66332031 418.22319336 -49.63914063 418.00888672 -50.64453125 417.78808594 C-70.68209363 413.27766479 -89.61679065 406.17069797 -107.6875 396.4375 C-108.35088379 396.08574707 -109.01426758 395.73399414 -109.69775391 395.37158203 C-137.05529955 380.80576747 -161.09975212 360.21218751 -179.6875 335.4375 C-180.11562988 334.87546875 -180.54375977 334.3134375 -180.98486328 333.734375 C-204.54609756 302.69410329 -220.53179184 261.97506823 -220.92578125 222.78515625 C-220.93562042 221.9762645 -220.94545959 221.16737274 -220.95559692 220.33396912 C-221.53165636 160.62401637 -201.92986832 108.72034531 -160.6875 65.4375 C-159.96175781 64.65890625 -159.23601562 63.8803125 -158.48828125 63.078125 C-152.13317597 56.45283964 -145.00206682 50.94624593 -137.6875 45.4375 C-137.1399707 45.01855469 -136.59244141 44.59960938 -136.02832031 44.16796875 C-111.55418624 25.51254895 -83.14936484 13.09880391 -53.375 5.75 C-52.24094727 5.46431152 -52.24094727 5.46431152 -51.08398438 5.17285156 C-34.20671197 1.21270534 -17.28936574 -0.11788161 0 0 Z " fill="#000001" transform="translate(220.6875,-0.4375)"/>
<path d="M0 0 C3.32909459 3.700703 4.43787913 7.84415364 5.86328125 12.50390625 C6.13657761 13.37289047 6.40987396 14.24187469 6.69145203 15.13719177 C7.57258601 17.94335977 8.44309944 20.75267707 9.3125 23.5625 C16.33855554 46.11030605 23.68713957 68.53907155 31 91 C63.01 91.33 95.02 91.66 128 92 C122.37414966 97.62585034 122.37414966 97.62585034 118.98828125 100.09375 C118.2398999 100.64232666 117.49151855 101.19090332 116.72045898 101.75610352 C115.92583252 102.33158936 115.13120605 102.9070752 114.3125 103.5 C113.475979 104.11093506 112.63945801 104.72187012 111.77758789 105.35131836 C109.18881152 107.23943916 106.59520648 109.12072963 104 111 C103.22301758 111.56348145 102.44603516 112.12696289 101.64550781 112.70751953 C95.68094993 117.03098736 89.70463057 121.33806609 83.72216797 125.63671875 C81.43890398 127.27743416 79.1566846 128.919589 76.875 130.5625 C76.13886475 131.09198242 75.40272949 131.62146484 74.64428711 132.16699219 C70.85905847 134.89940065 67.10299059 137.66390961 63.3828125 140.484375 C62.64562988 141.04310303 61.90844727 141.60183105 61.14892578 142.17749023 C59.74538894 143.24537097 58.34516128 144.31761899 56.94873047 145.39477539 C52.2172942 149 52.2172942 149 50 149 C52.68956553 158.79993361 55.72884364 168.44331052 58.97387695 178.07196045 C59.76874332 180.43061826 60.55962504 182.7905818 61.34960938 185.15087891 C63.31740724 191.02714128 65.29268492 196.90087139 67.27148438 202.7734375 C74.48225737 224.17315092 74.48225737 224.17315092 77.2109375 234.1953125 C78.04665974 237.16584996 79.00351891 240.07987715 80 243 C77.11996634 241.64650435 74.63375836 240.10215936 72.0859375 238.19921875 C71.3343335 237.64097412 70.58272949 237.08272949 69.80834961 236.50756836 C68.60384155 235.60663452 68.60384155 235.60663452 67.375 234.6875 C65.65547618 233.41074656 63.93541138 232.13472143 62.21484375 230.859375 C61.34327637 230.21291016 60.47170898 229.56644531 59.57373047 228.90039062 C55.71517998 226.05131483 51.82926371 223.24096193 47.9375 220.4375 C47.19999512 219.90600342 46.46249023 219.37450684 45.70263672 218.8269043 C44.21323976 217.75397301 42.72365699 216.6812996 41.23388672 215.60888672 C38.23673041 213.45027906 35.24249765 211.28763989 32.2487793 209.12426758 C30.76002768 208.0489593 29.27061596 206.97456428 27.78051758 205.90112305 C23.84199429 203.06246598 19.91689345 200.20722303 16.0078125 197.328125 C15.19054687 196.72935547 14.37328125 196.13058594 13.53125 195.51367188 C11.96241965 194.36379054 10.39712629 193.20906314 8.8359375 192.04882812 C8.12953125 191.53255859 7.423125 191.01628906 6.6953125 190.484375 C6.07672363 190.02772461 5.45813477 189.57107422 4.82080078 189.10058594 C2.81386292 187.88748915 1.33531561 187.25491935 -1 187 C-3.54380026 188.61656371 -5.78717244 190.24617971 -8.125 192.125 C-9.56771183 193.24646424 -11.01177155 194.36619619 -12.45703125 195.484375 C-13.20549316 196.06767578 -13.95395508 196.65097656 -14.72509766 197.25195312 C-18.3598316 200.04490173 -22.08469028 202.70830194 -25.8125 205.375 C-32.86941282 210.44568051 -39.87567088 215.58108284 -46.86303711 220.74707031 C-53.24808876 225.4614954 -59.67486429 230.11605629 -66.12695312 234.73828125 C-69.83301594 237.40062369 -73.4687834 240.10578718 -77 243 C-77.66 242.67 -78.32 242.34 -79 242 C-78.78115646 241.33316193 -78.56231293 240.66632385 -78.33683777 239.97927856 C-76.26153487 233.65486301 -74.18745735 227.33004703 -72.11471081 221.00479317 C-71.04938461 217.75395461 -69.98360671 214.50326568 -68.91674805 211.25292969 C-67.68659184 207.50501454 -66.45848741 203.75642859 -65.23046875 200.0078125 C-64.85222458 198.85636749 -64.47398041 197.70492249 -64.08427429 196.51858521 C-62.19499218 190.74610894 -60.35668277 184.96596638 -58.64179993 179.13912964 C-57.13819824 174.12760065 -55.41046513 169.18578815 -53.69921875 164.2421875 C-53.23690642 162.89064988 -52.77466717 161.53908726 -52.3125 160.1875 C-52.08578613 159.54079346 -51.85907227 158.89408691 -51.62548828 158.2277832 C-50.49834809 154.91589119 -50 152.55191083 -50 149 C-52.39876388 147.0158752 -54.72304541 145.3272559 -57.3125 143.625 C-58.88421186 142.55543887 -60.45447243 141.48374266 -62.0234375 140.41015625 C-62.84424805 139.85215332 -63.66505859 139.29415039 -64.51074219 138.71923828 C-68.55484709 135.92612464 -72.49386026 132.99493961 -76.4375 130.0625 C-82.62016979 125.48463186 -88.82269449 120.93721567 -95.0625 116.4375 C-95.79162598 115.91099854 -96.52075195 115.38449707 -97.27197266 114.84204102 C-101.15682298 112.03965009 -105.05043729 109.25015546 -108.953125 106.47265625 C-110.17310181 105.60072632 -110.17310181 105.60072632 -111.41772461 104.71118164 C-112.96781649 103.6035668 -114.52055137 102.49963759 -116.07641602 101.40014648 C-117.13107056 100.64519897 -117.13107056 100.64519897 -118.20703125 99.875 C-119.12705933 99.22144531 -119.12705933 99.22144531 -120.06567383 98.5546875 C-122.54481971 96.5621088 -124.75094084 94.24905916 -127 92 C-78.985 91.505 -78.985 91.505 -30 91 C-27.091875 82.110625 -24.18375 73.22125 -21.1875 64.0625 C-14.18969191 42.68656081 -7.16080702 21.32197555 0 0 Z " fill="#FACC08" transform="translate(217,70)"/>
<path d="M0 0 C2.51568161 3.01033811 3.68111412 5.61373176 4.75 9.375 C6.936411 16.84808446 9.31194545 24.25313423 11.71386719 31.65966797 C12.00938477 32.58021973 12.30490234 33.50077148 12.609375 34.44921875 C12.87717773 35.27768311 13.14498047 36.10614746 13.42089844 36.9597168 C14 39 14 39 14 41 C27.86 41 41.72 41 56 41 C52.2449738 44.7550262 48.7426924 47.77713873 44.4375 50.75 C38.62036909 54.82261081 32.94687206 59.04105341 27.328125 63.3828125 C25 65 25 65 23 65 C27.02797594 79.11049199 31.21754869 93.12563575 36 107 C31.67373449 105.53938926 28.62121981 103.33620545 25.0625 100.5 C20.26176033 96.72465427 15.4041174 93.05480373 10.4375 89.5 C9.85427979 89.07912109 9.27105957 88.65824219 8.67016602 88.22460938 C5.86455501 86.22463466 3.10031432 84.49316148 0 83 C-11.03679019 90.95037553 -22.04500321 98.93725162 -33 107 C-34.41766125 102.52609753 -33.01727332 99.28633999 -31.47265625 95.0234375 C-31.20488876 94.25697906 -30.93712128 93.49052063 -30.66123962 92.70083618 C-29.80495591 90.25525014 -28.93439578 87.81505883 -28.0625 85.375 C-27.19680618 82.92696092 -26.33411344 80.47791131 -25.47447205 78.02774048 C-24.93883668 76.50380883 -24.39920112 74.98127627 -23.85523987 73.46029663 C-22.48144202 69.82009247 -22.48144202 69.82009247 -22 66 C-23.46289173 64.66611307 -23.46289173 64.66611307 -25.41015625 63.34765625 C-26.14637207 62.82333008 -26.88258789 62.29900391 -27.64111328 61.75878906 C-28.4401709 61.19901367 -29.23922852 60.63923828 -30.0625 60.0625 C-31.7073368 58.89235647 -33.35186265 57.72177573 -34.99609375 56.55078125 C-35.82995605 55.95990723 -36.66381836 55.3690332 -37.52294922 54.76025391 C-41.24306186 52.11664932 -44.93800934 49.43953083 -48.625 46.75 C-49.26961182 46.284729 -49.91422363 45.81945801 -50.57836914 45.34008789 C-52.07076023 44.25166773 -53.53848847 43.12954578 -55 42 C-55 41.67 -55 41.34 -55 41 C-41.14 41 -27.28 41 -13 41 C-11.37927256 35.5975752 -9.76694326 30.20436564 -8.21166992 24.78491211 C-5.79253506 16.39394705 -3.04793553 8.18403115 0 0 Z " fill="#030200" transform="translate(217,145)"/>
<path d="M0 0 C0.495 0.99 0.495 0.99 1 2 C-44.54 2.495 -44.54 2.495 -91 3 C-87.75387099 6.24612901 -84.60100228 8.84263402 -80.875 11.4375 C-79.61552157 12.32630756 -78.35642559 13.21565724 -77.09765625 14.10546875 C-76.43137207 14.5751709 -75.76508789 15.04487305 -75.07861328 15.52880859 C-71.47381346 18.08019733 -67.89263965 20.66416987 -64.3125 23.25 C-63.56548828 23.78947266 -62.81847656 24.32894531 -62.04882812 24.88476562 C-50.62245025 33.15168702 -39.27025022 41.52148069 -28 50 C-28.495 50.99 -28.495 50.99 -29 52 C-29.94617188 51.28457031 -30.89234375 50.56914062 -31.8671875 49.83203125 C-42.1454205 42.08056344 -52.54431429 34.50973164 -63 27 C-72.08488848 20.474835 -81.15501378 13.93271017 -90.125 7.25 C-90.81867676 6.73622803 -91.51235352 6.22245605 -92.22705078 5.69311523 C-93.83710246 4.48712341 -95.42165151 3.24719636 -97 2 C-97 1.67 -97 1.34 -97 1 C-48.985 0.505 -48.985 0.505 0 0 Z " fill="#CCB10F" transform="translate(187,161)"/>
<path d="M0 0 C3.66651075 3.66651075 3.96334366 8.02390195 4 13 C3.67 13.99 3.34 14.98 3 16 C2.34 16 1.68 16 1 16 C1 16.66 1 17.32 1 18 C0.34 18 -0.32 18 -1 18 C-1 17.34 -1 16.68 -1 16 C-2.32 16.33 -3.64 16.66 -5 17 C-3.83348574 11.07136283 -2.24480642 5.61201606 0 0 Z " fill="#EFC80B" transform="translate(217,70)"/>
<path d="M0 0 C4.15151338 1.44202476 7.29978445 3.5010438 10.8125 6.125 C11.78832031 6.84945312 12.76414063 7.57390625 13.76953125 8.3203125 C14.50558594 8.87460938 15.24164063 9.42890625 16 10 C15.01 10.495 15.01 10.495 14 11 C13.4225 10.525625 12.845 10.05125 12.25 9.5625 C10.07417916 8.0515133 8.57397552 7.45963849 6 7 C6 6.01 6 5.02 6 4 C5.195625 3.71125 4.39125 3.4225 3.5625 3.125 C1 2 1 2 0 0 Z " fill="#F0D50F" transform="translate(224,233)"/>
<path d="M0 0 C0.33 0.99 0.66 1.98 1 3 C-0.26239712 3.86658615 -1.53527501 4.71792059 -2.8125 5.5625 C-3.87404297 6.27599609 -3.87404297 6.27599609 -4.95703125 7.00390625 C-7 8 -7 8 -10 7 C-6.7 4.69 -3.4 2.38 0 0 Z " fill="#EDCD0E" transform="translate(269,189)"/>
<path d="M0 0 C1.32 0 2.64 0 4 0 C4 0.99 4 1.98 4 3 C4.61875 3.28875 5.2375 3.5775 5.875 3.875 C8 5 8 5 10 7 C6.00118212 6.38479725 3.19641774 4.39731331 0 2 C0 1.34 0 0.68 0 0 Z " fill="#EFD20F" transform="translate(224,259)"/>
<path d="M0 0 C0.6875 1.8125 0.6875 1.8125 1 4 C-0.3125 5.75 -0.3125 5.75 -2 7 C-2.66 7 -3.32 7 -4 7 C-3.67 5.02 -3.34 3.04 -3 1 C-2.01 0.67 -1.02 0.34 0 0 Z " fill="#EFC80A" transform="translate(146,296)"/>
<path d="M0 0 C0.33 0.66 0.66 1.32 1 2 C1.99 2 2.98 2 4 2 C4 2.66 4 3.32 4 4 C2 5.625 2 5.625 0 7 C-0.66 6.67 -1.32 6.34 -2 6 C-1.34 4.02 -0.68 2.04 0 0 Z " fill="#CFB50F" transform="translate(140,306)"/>
</svg>
